<svg width="616" height="348" viewBox="0 0 616 348" fill="none" xmlns="http://www.w3.org/2000/svg">
<path fill-rule="evenodd" clip-rule="evenodd" d="M450.278 132.873H323.963H234.697H108.382C78.8629 132.873 50.6456 145.024 30.362 166.47C-8.79555 207.871 -8.79555 272.65 30.362 314.051C50.6456 335.497 78.8629 347.648 108.382 347.648H234.697H323.963H450.278C479.797 347.648 508.014 335.497 528.298 314.051C567.456 272.65 567.456 207.871 528.298 166.47C508.014 145.024 479.797 132.873 450.278 132.873Z" fill="white"/>
<ellipse rx="173.964" ry="174" transform="matrix(-1 0 0 1 442.036 174)" fill="white"/>
<ellipse rx="104.027" ry="104.048" transform="matrix(-1 0 0 1 225.898 143.418)" fill="white"/>
</svg>
