<svg width="1640" height="1640" viewBox="0 0 1640 1640" fill="none" xmlns="http://www.w3.org/2000/svg">
<mask id="mask0" mask-type="alpha" maskUnits="userSpaceOnUse" x="0" y="0" width="1640" height="1640">
<circle cx="820" cy="820" r="820" fill="#4C93C7"/>
</mask>
<g mask="url(#mask0)">
<circle cx="820" cy="820" r="820" fill="#4C93C7"/>
<path fill-rule="evenodd" clip-rule="evenodd" d="M297.75 72H477.482H604.482H784.213C826.196 72 866.328 89.2793 895.179 119.778C950.891 178.671 950.891 270.829 895.179 329.722C866.328 360.221 826.196 377.5 784.213 377.5H604.482H477.482H297.75C255.767 377.5 215.636 360.221 186.784 329.722C131.072 270.829 131.072 178.671 186.784 119.778C215.636 89.2793 255.767 72 297.75 72Z" fill="#CDE9AA"/>
<path fill-rule="evenodd" clip-rule="evenodd" d="M1246.44 366H1361.64H1449.35H1564.55C1599.03 366 1631.78 381.15 1654.1 407.434C1691.36 451.3 1691.36 515.699 1654.1 559.566C1631.78 585.85 1599.03 601 1564.55 601H1449.35H1361.64H1246.44C1211.95 601 1179.21 585.85 1156.88 559.566C1119.62 515.699 1119.62 451.3 1156.88 407.434C1179.21 381.15 1211.95 366 1246.44 366Z" fill="#CDE9AA"/>
<path fill-rule="evenodd" clip-rule="evenodd" d="M133 978H289.493H400.072H556.565C593.12 978 628.063 993.045 653.183 1019.6C701.693 1070.88 701.693 1151.12 653.183 1202.4C628.063 1228.95 593.12 1244 556.565 1244H400.072H289.493H133C96.4457 1244 61.5026 1228.95 36.3818 1202.4C-12.1273 1151.12 -12.1273 1070.88 36.3818 1019.6C61.5026 993.045 96.4456 978 133 978Z" fill="#CDE9AA"/>
<path fill-rule="evenodd" clip-rule="evenodd" d="M201.5 608H452.744H590.337H841.582C851.296 608 860.903 610.037 869.782 613.978C924.849 638.425 924.849 716.575 869.782 741.022C860.903 744.963 851.296 747 841.582 747H590.337H452.744H201.5C191.786 747 182.179 744.963 173.3 741.022C118.233 716.575 118.233 638.425 173.3 613.978C182.179 610.037 191.786 608 201.5 608Z" fill="#CDE9AA"/>
<path fill-rule="evenodd" clip-rule="evenodd" d="M1343.5 825H1594.74H1732.34H1983.58C1993.3 825 2002.9 827.037 2011.78 830.978C2066.85 855.425 2066.85 933.575 2011.78 958.022C2002.9 961.963 1993.3 964 1983.58 964H1732.34H1594.74H1343.5C1333.79 964 1324.18 961.963 1315.3 958.022C1260.23 933.575 1260.23 855.425 1315.3 830.978C1324.18 827.037 1333.79 825 1343.5 825Z" fill="#CDE9AA"/>
<path fill-rule="evenodd" clip-rule="evenodd" d="M983 1183H1174.79H1310.31H1502.11C1546.91 1183 1589.73 1201.44 1620.52 1233.98C1679.97 1296.83 1679.97 1395.17 1620.52 1458.02C1589.73 1490.56 1546.91 1509 1502.11 1509H1310.31H1174.79H983C938.2 1509 895.375 1490.56 864.588 1458.02C805.137 1395.17 805.137 1296.83 864.588 1233.98C895.375 1201.44 938.2 1183 983 1183Z" fill="#CDE9AA"/>
<path d="M450.5 625.5C386.5 1169.5 982.374 1776.5 529.5 1776.5C76.6265 1776.5 -290.5 1152.87 -290.5 700C-290.5 247.126 -31.8735 -446.5 421 -446.5C873.874 -446.5 506.5 149.5 450.5 625.5Z" fill="#256A9C" fill-opacity="0.2"/>
</g>
</svg>
